<svg xmlns="http://www.w3.org/2000/svg" xmlns:xlink="http://www.w3.org/1999/xlink" width="16" height="16" class="icon" p-id="1371" t="1659672294109" version="1.1" viewBox="0 0 1024 1024"><defs><style type="text/css">@font-face{font-family:feedback-iconfont;src:url(//at.alicdn.com/t/font_1031158_u69w8yhxdu.woff2?t=1630033759944) format(&quot;woff2&quot;),url(//at.alicdn.com/t/font_1031158_u69w8yhxdu.woff?t=1630033759944) format(&quot;woff&quot;),url(//at.alicdn.com/t/font_1031158_u69w8yhxdu.ttf?t=1630033759944) format(&quot;truetype&quot;)}</style></defs><path fill="#fff" d="M512 255.78c-194.98 0-360.39 106.95-421.96 256 61.57 149.05 226.98 256 421.96 256s360.39-106.95 421.96-256c-61.57-149.05-226.98-256-421.96-256z m0 448c-106.04 0-192-85.96-192-192s85.96-192 192-192 192 85.96 192 192-85.96 192-192 192z" p-id="1372"/><path fill="#fff" d="M512 511.78m-128 0a128 128 0 1 0 256 0 128 128 0 1 0-256 0Z" p-id="1373"/></svg>