<svg xmlns="http://www.w3.org/2000/svg" width="234" height="17" fill="none" viewBox="0 0 234 17"><path fill="#B3B3B3" d="M169.731 3.76779H28.1206V4.78227H169.731V3.76779Z"/><path fill="#b3b3b3" d="M 28.373394,3.6746933 18.596523,9.352789 18.819735,9.6746933 28.596523,3.9965976 Z" style="stroke-width:.78958"/><path fill="#b3b3b3" d="M 31.085752,3.8481847 V 15.348185 h 0.5021 V 3.8481847 Z" style="stroke-width:.933806"/><path fill="#B3B3B3" d="M206.39 8.5V15.5H206.892V8.5H206.39Z"/><path fill="#b3b3b3" d="M 222.957,4.1444931 V 15.347493 h 0.502 V 4.1444931 Z" style="stroke-width:.888142"/><path fill="#b3b3b3" d="m 216.98355,4.5814225 v 4 h 0.502 v -4 z" style="stroke-width:.750517"/><path fill="#B3B3B3" d="M217.438 8.31208L206.39 8.36945L206.393 8.87668L217.44 8.81931L217.438 8.31208Z"/><path fill="#b3b3b3" d="m 223.05435,4.1714045 -6,0.03116 0.003,0.50723 6,-0.03116 z"/><path fill="#B3B3B3" d="M169.731 5.79672H28.1206V6.8112H169.731V5.79672Z"/><path fill="#B3B3B3" d="M169.731 7.82568H28.1206V8.84016H169.731V7.82568Z"/><path fill="#B3B3B3" d="M28.1212 9.34741H0V11.3764H28.1212V9.34741Z"/><path fill="#B3B3B3" d="M174.25 9.85464H28.1206V10.8691H174.25V9.85464Z"/><path fill="#B3B3B3" d="M215.93 11.8836H28.1206V12.898H215.93V11.8836Z"/><path fill="#B3B3B3" d="M233.004 14.927H0.00439453V15.9415H233.004V14.927Z"/><path fill="#B3B3B3" d="M232.999 5.28949H231.46V15.4785H232.999V5.28949Z"/></svg>