<svg xmlns="http://www.w3.org/2000/svg" width="16" height="16" viewBox="0 0 16 16"><path d="M7.5,12.5h-3a2,2,0,0,1-2-2v-1" style="fill:none;stroke:#009688;stroke-linecap:round;stroke-linejoin:round"/><path d="M7.5,2.5h3a2,2,0,0,1,2,2v1" style="fill:none;stroke:#009688;stroke-linecap:round;stroke-linejoin:round"/><polyline points="9.5 4.5 7.5 2.5 9.5 .5" style="fill:none;stroke:#009688;stroke-linecap:round;stroke-linejoin:round"/><polyline points="5.5 14.5 7.5 12.5 5.5 10.5" style="fill:none;stroke:#009688;stroke-linecap:round;stroke-linejoin:round"/><rect width="1" height="6" y="1" style="fill:#949494"/><rect width="1" height="7" x="10" y="8" style="fill:#949494"/><rect width="1" height="2" x="14" y="9" style="fill:#949494"/><rect width="1" height="2" x="14" y="12" style="fill:#949494"/><rect width="3" height="1" x="1" y="4" style="fill:#949494"/><rect width="3" height="1" x="11" y="11" style="fill:#949494"/><rect width="3" height="1" x="11" y="14" style="fill:#949494"/><rect width="3" height="1" x="11" y="8" style="fill:#949494"/><rect width="3" height="1" x="1" style="fill:#949494"/><rect width="1" height="6" x="4" y="1" style="fill:#949494"/></svg>