<svg xmlns="http://www.w3.org/2000/svg" width="30" height="40" fill="none" viewBox="0 0 30 40"><rect width="3.6" height="3.573" x="19.759" y="9.391" fill="#D9D9D9"/><rect width="3.6" height="3.573" x="12.56" y="5.818" fill="#fff"/><rect width="3.6" height="3.573" x="16.159" y="5.818" fill="#D9D9D9"/><rect width="3.93" height="3.573" x="8.629" y="5.818" fill="#D9D9D9"/><rect width="3.6" height="3.573" x="12.559" y="9.391" fill="#D9D9D9"/><rect width="3.6" height="3.573" x="19.76" y="5.818" fill="#fff"/><rect width="3.6" height="3.573" x="16.16" y="9.391" fill="#fff"/><rect width="3.93" height="3.573" x="8.629" y="9.391" fill="#fff"/><rect width="3.6" height="3.573" x="19.759" y="16.538" fill="#D9D9D9"/><rect width="3.6" height="3.573" x="12.559" y="12.965" fill="#fff"/><rect width="3.6" height="3.573" x="16.16" y="12.965" fill="#D9D9D9"/><rect width="3.93" height="3.573" x="8.629" y="12.965" fill="#D9D9D9"/><rect width="3.6" height="3.573" x="12.559" y="16.538" fill="#D9D9D9"/><rect width="3.6" height="3.573" x="19.759" y="12.965" fill="#fff"/><rect width="3.6" height="3.573" x="16.16" y="16.538" fill="#fff"/><rect width="3.93" height="3.573" x="8.629" y="16.538" fill="#fff"/><rect width="3.6" height="3.573" x="19.759" y="23.685" fill="#D9D9D9"/><rect width="3.6" height="3.573" x="12.559" y="20.112" fill="#fff"/><rect width="3.6" height="3.573" x="16.16" y="20.112" fill="#D9D9D9"/><rect width="3.93" height="3.573" x="8.629" y="20.112" fill="#D9D9D9"/><rect width="3.6" height="3.573" x="12.559" y="23.685" fill="#D9D9D9"/><rect width="3.6" height="3.573" x="19.759" y="20.112" fill="#fff"/><rect width="3.6" height="3.573" x="16.16" y="23.685" fill="#fff"/><rect width="3.93" height="3.573" x="8.629" y="23.685" fill="#fff"/><rect width="3.6" height="3.573" x="19.759" y="30.608" fill="#D9D9D9"/><rect width="3.6" height="3.573" x="12.559" y="27.035" fill="#fff"/><rect width="3.6" height="3.573" x="16.16" y="27.035" fill="#D9D9D9"/><rect width="3.93" height="3.573" x="8.629" y="27.035" fill="#D9D9D9"/><rect width="3.6" height="3.573" x="12.559" y="30.608" fill="#D9D9D9"/><rect width="3.6" height="3.573" x="19.759" y="27.035" fill="#fff"/><rect width="3.6" height="3.573" x="16.16" y="30.608" fill="#fff"/><rect width="3.93" height="3.573" x="8.629" y="30.608" fill="#fff"/><path fill="#F2F2F2" d="M23.2596 37.5131C25.5229 37.5131 27.3577 29.5764 27.3577 19.7859C27.3577 9.99536 25.5229 2.05859 23.2596 2.05859C22.3784 2.05859 21.3802 3.55703 20.7119 5.60405H22.2969C22.7771 6.93611 23.7442 11.4734 23.7442 20.5097C23.7442 29.546 22.4689 33.0115 22.2969 34.0043H20.8278C21.5273 36.4088 22.2967 37.5131 23.2596 37.5131Z"/><path stroke="#5C5C5C" stroke-width="2" d="M20.7119 5.60405C21.3802 3.55703 22.3784 2.05859 23.2596 2.05859C25.5229 2.05859 27.3577 9.99536 27.3577 19.7859C27.3577 29.5764 25.5229 37.5131 23.2596 37.5131C22.2967 37.5131 21.4114 36.0767 20.7119 33.6722"/><path stroke="#5C5C5C" d="M8.62891 5.60352H22.3115C23.2206 8.8144 23.7331 14.1019 23.7331 20.0808C23.7331 25.7062 23.1308 30.7196 22.3115 33.9672H8.62891"/><path fill="#F2F2F2" stroke="#5C5C5C" stroke-width="2" d="M6.51399 37.5132C8.68286 37.5132 10.4411 29.5764 10.4411 19.7859C10.4411 9.99538 8.68286 2.05859 6.51399 2.05859C4.34513 2.05859 2.58691 9.99538 2.58691 19.7859C2.58691 29.5764 4.34513 37.5132 6.51399 37.5132Z"/><path fill="#5C5C5C" d="M6.21159 22.7401C6.54526 22.7401 6.81576 21.5495 6.81576 20.081C6.81576 18.6124 6.54526 17.4219 6.21159 17.4219C5.87792 17.4219 5.60742 18.6124 5.60742 20.081C5.60742 21.5495 5.87792 22.7401 6.21159 22.7401Z"/></svg>