<svg xmlns="http://www.w3.org/2000/svg" id="a" width="18" height="18" viewBox="0 0 18 18"><rect width="2" height="1" x="2" y="6" style="fill:#009688"/><rect width="1" height="1" y="6" style="fill:#949494"/><rect width="2" height="1" x="5" y="6" style="fill:#009688"/><rect width="2" height="1" x="8" y="6" style="fill:#009688"/><rect width="2" height="1" x="11" y="6" style="fill:#009688"/><rect width="2" height="1" x="1" y="4" style="fill:#009688"/><rect width="2" height="1" x="4" y="4" style="fill:#009688"/><rect width="2" height="1" x="7" y="4" style="fill:#009688"/><rect width="2" height="1" x="2" y="2" style="fill:#009688"/><rect width="2" height="1" x="5" y="2" style="fill:#009688"/><rect width="1" height="1" x="8" y="2" style="fill:#009688"/><rect width="2" height="1" x="10" y="4" style="fill:#009688"/><rect width="2" height="1" x="2" y="10" style="fill:#009688"/><rect width="1" height="1" y="10" style="fill:#949494"/><rect width="2" height="1" x="5" y="10" style="fill:#009688"/><rect width="2" height="1" x="8" y="10" style="fill:#009688"/><rect width="2" height="1" x="1" y="8" style="fill:#009688"/><rect width="2" height="1" x="4" y="8" style="fill:#009688"/><rect width="2" height="1" x="7" y="8" style="fill:#009688"/><rect width="1" height="1" x="10" y="8" style="fill:#009688"/><rect width="2" height="1" x="1" y="12" style="fill:#009688"/><rect width="2" height="1" x="2" y="14" style="fill:#009688"/><rect width="1" height="1" x="5" y="14" style="fill:#009688"/><rect width="2" height="1" x="4" y="12" style="fill:#009688"/><rect width="1" height="1" x="7" y="12" style="fill:#009688"/><path d="M.5,14.5v1c0,.55.45,1,1,1h14c.55,0,1-.45,1-1V1.5c0-.55-.45-1-1-1H1.5C.95.5.5.95.5,1.5v1" style="fill:none;stroke:#949494;stroke-linecap:round;stroke-linejoin:round"/></svg>