<svg xmlns="http://www.w3.org/2000/svg" xmlns:svg="http://www.w3.org/2000/svg" xmlns:xlink="http://www.w3.org/1999/xlink" id="svg2" width="1024" height="1024" version="1.1" viewBox="0 0 1280 1280"><defs id="defs6"><linearGradient id="linearGradient4731"><stop style="stop-color:#000;stop-opacity:1" id="stop4727" offset="0"/><stop style="stop-color:#000;stop-opacity:0" id="stop4729" offset="1"/></linearGradient><linearGradient id="linearGradient3247"><stop style="stop-color:#9c1a1a;stop-opacity:1" id="stop3245" offset="0"/></linearGradient><linearGradient id="linearGradient3241"><stop style="stop-color:#f9f9f9;stop-opacity:.69999999" id="stop3239" offset="0"/></linearGradient><clipPath id="clipPath16" clipPathUnits="userSpaceOnUse"><path id="path14" d="M 0,792 H 612 V 0 H 0 Z"/></clipPath><radialGradient id="radialGradient4733" cx="306.272" cy="387.852" r="299.729" fx="306.272" fy="387.852" gradientTransform="matrix(1,0,0,1.1982454,0,-76.889815)" gradientUnits="userSpaceOnUse" xlink:href="#linearGradient4731"/><filter style="color-interpolation-filters:sRGB" id="filter5943" width="1.483" height="1.394" x="-.241" y="-.197"><feFlood id="feFlood5933" flood-color="#000" flood-opacity=".498" result="flood"/><feComposite id="feComposite5935" in="flood" in2="SourceGraphic" operator="in" result="composite1"/><feGaussianBlur id="feGaussianBlur5937" in="composite1" result="blur" stdDeviation="30.53"/><feOffset id="feOffset5939" dx="0" dy="0" result="offset"/><feComposite id="feComposite5941" in="SourceGraphic" in2="offset" operator="over" result="fbSourceGraphic"/><feColorMatrix id="feColorMatrix5945" in="fbSourceGraphic" result="fbSourceGraphicAlpha" values="0 0 0 -1 0 0 0 0 -1 0 0 0 0 -1 0 0 0 0 1 0"/><feFlood id="feFlood5947" flood-color="#000" flood-opacity=".498" in="fbSourceGraphic" result="flood"/><feComposite id="feComposite5949" in="flood" in2="fbSourceGraphic" operator="in" result="composite1"/><feGaussianBlur id="feGaussianBlur5951" in="composite1" result="blur" stdDeviation="30.53"/><feOffset id="feOffset5953" dx="0" dy="0" result="offset"/><feComposite id="feComposite5955" in="fbSourceGraphic" in2="offset" operator="over" result="composite2"/></filter></defs><g id="layer1" transform="matrix(0.99895749,0,0,0.99799215,-0.93372196,0.06231743)" style="display:inline;fill:none"><ellipse style="fill:#fafafa;fill-opacity:1;fill-rule:evenodd;stroke:#d7d4c3;stroke-width:1.65725;stroke-opacity:.717514" id="path713" cx="641.534" cy="646.471" rx="624.273" ry="624.877"/></g><g id="g8" transform="matrix(1.3333333,0,0,-1.3333333,0,1056)" style="display:inline"><g id="g10" transform="translate(180.11526,-78.365764)" style="filter:url(#filter5943)"><g id="g3273" transform="translate(-7.9549494,-26.516507)" style="display:inline;opacity:.284974;mix-blend-mode:overlay;fill-opacity:1;fill:url(#radialGradient4733)"><g id="g3271" clip-path="url(#clipPath16)" style="fill-opacity:1;fill:url(#radialGradient4733)"><g id="g3253" transform="translate(59.7287,115.3517)" style="fill-opacity:1;fill:url(#radialGradient4733)"><path style="fill:url(#radialGradient4733);fill-opacity:1;fill-rule:nonzero;stroke:none" id="path3251" d="m 0,0 c 53.332,-53.285 126.698,-86.317 207.744,-86.646 164.049,-0.664 298.355,134.38 297.699,299.337 -0.324,81.496 -33.176,155.271 -86.17,208.899 z"/></g><g id="g3257" transform="translate(479.0017,536.9419)" style="fill-opacity:1;fill:url(#radialGradient4733)"><path style="fill:url(#radialGradient4733);fill-opacity:1;fill-rule:nonzero;stroke:none" id="path3255" d="m 0,0 -419.273,-421.59 c 0.298,-0.298 0.606,-0.587 0.906,-0.884 146.894,74.925 348.023,206.579 486.003,316.297 C 52.756,-65.97 29.506,-29.859 0,0"/></g><g id="g3261" transform="translate(397.0372,747)" style="fill-opacity:1;fill:url(#radialGradient4733)"><path style="fill:url(#radialGradient4733);fill-opacity:1;fill-rule:nonzero;stroke:none" id="path3259" d="m 0,0 c -163.742,0 -296.482,-133.473 -296.482,-298.121 0,-81.979 32.915,-156.223 86.172,-210.117 l 419.273,421.59 C 155.364,-33.096 81.529,0 0,0"/></g><g id="g3265" transform="translate(397.0372,747)" style="fill-opacity:1;fill:url(#radialGradient4733)"><path style="fill:url(#radialGradient4733);fill-opacity:1;fill-rule:nonzero;stroke:none" id="path3263" d="m 0,0 c -56.714,0 -109.702,-16.022 -154.751,-43.796 -24.127,6.312 -54.061,11.37 -88.437,11.157 -59.938,-0.372 -108.713,-16.603 -141.822,-31.784 -8.218,-3.768 -6.898,-15.967 1.941,-17.829 21.801,-4.593 50.498,-14.324 78.883,-35.28 17.931,-13.238 31.574,-27.883 41.856,-41.597 -21.794,-41.504 -34.152,-88.793 -34.152,-138.992 0,-29.952 4.412,-58.865 12.586,-86.137 12.54,27.79 25.699,46.391 29.916,52.184 27.229,37.41 56.015,56.883 98.542,85.651 31.328,21.193 74.856,46.047 199.916,97.449 0,0 39.121,11.017 91.587,42.212 20.912,12.433 36.823,24.17 41.863,42.526 0.355,1.293 0.677,2.57 0.973,3.83 C 129.175,-22.506 67.208,0 0,0"/></g><g id="g3269" transform="translate(446.5563,646.8041)" style="fill-opacity:1;fill:url(#radialGradient4733)"><path style="fill:url(#radialGradient4733);fill-opacity:1;fill-rule:nonzero;stroke:none" id="path3267" d="m 0,0 c 10.875,-19.229 -10.891,-52.305 -48.616,-73.879 -37.725,-21.573 -77.124,-23.474 -88,-4.245 -10.875,19.229 10.891,52.305 48.617,73.879 C -50.274,17.328 -10.875,19.229 0,0"/></g></g></g><g id="g12" clip-path="url(#clipPath16)"><g id="g18" transform="translate(59.7287,115.3517)"><path style="fill:#292826;fill-opacity:1;fill-rule:nonzero;stroke:none" id="path20" d="m 0,0 c 53.332,-53.285 126.698,-86.317 207.744,-86.646 164.049,-0.664 298.355,134.38 297.699,299.337 -0.324,81.496 -33.176,155.271 -86.17,208.899 z"/></g><g id="g22" transform="translate(479.0017,536.9419)"><path style="fill:#009789;fill-opacity:1;fill-rule:nonzero;stroke:none" id="path24" d="m 0,0 -419.273,-421.59 c 0.298,-0.298 0.606,-0.587 0.906,-0.884 146.894,74.925 348.023,206.579 486.003,316.297 C 52.756,-65.97 29.506,-29.859 0,0"/></g><g id="g26" transform="translate(397.0372,747)"><path style="fill:#292826;fill-opacity:1;fill-rule:nonzero;stroke:none" id="path28" d="m 0,0 c -163.742,0 -296.482,-133.473 -296.482,-298.121 0,-81.979 32.915,-156.223 86.172,-210.117 l 419.273,421.59 C 155.364,-33.096 81.529,0 0,0"/></g><g id="g30" transform="translate(397.0372,747)"><path style="fill:#262523;fill-opacity:1;fill-rule:nonzero;stroke:none" id="path32" d="m 0,0 c -56.714,0 -109.702,-16.022 -154.751,-43.796 -24.127,6.312 -54.061,11.37 -88.437,11.157 -59.938,-0.372 -108.713,-16.603 -141.822,-31.784 -8.218,-3.768 -6.898,-15.967 1.941,-17.829 21.801,-4.593 50.498,-14.324 78.883,-35.28 17.931,-13.238 31.574,-27.883 41.856,-41.597 -21.794,-41.504 -34.152,-88.793 -34.152,-138.992 0,-29.952 4.412,-58.865 12.586,-86.137 12.54,27.79 25.699,46.391 29.916,52.184 27.229,37.41 56.015,56.883 98.542,85.651 31.328,21.193 74.856,46.047 199.916,97.449 0,0 39.121,11.017 91.587,42.212 20.912,12.433 36.823,24.17 41.863,42.526 0.355,1.293 0.677,2.57 0.973,3.83 C 129.175,-22.506 67.208,0 0,0"/></g><g id="g34" transform="translate(446.5563,646.8041)"><path style="fill:#fff;fill-opacity:1;fill-rule:nonzero;stroke:none" id="path36" d="m 0,0 c 10.875,-19.229 -10.891,-52.305 -48.616,-73.879 -37.725,-21.573 -77.124,-23.474 -88,-4.245 -10.875,19.229 10.891,52.305 48.617,73.879 C -50.274,17.328 -10.875,19.229 0,0"/></g></g></g></g></svg>