<svg xmlns="http://www.w3.org/2000/svg" width="9" height="52" fill="none" viewBox="0 0 9 52"><path fill="url(#paint0_linear_17771_23047)" fill-opacity=".2" fill-rule="evenodd" d="M7.52713 2.22441C7.52713 2.22436 7.52713 2.22431 7.52713 2.22426C7.52713 1.1339 6.02308 0.25 4.16775 0.25C2.31242 0.25 0.80838 1.1339 0.80838 2.22426C0.80838 2.22679 0.808388 2.22933 0.808405 2.23186V50.9227H7.52715V2.22441H7.52713Z" clip-rule="evenodd"/><line x1="7.788" x2="7.788" y1="1.909" y2="50.845" stroke="url(#paint1_linear_17771_23047)" stroke-linecap="round" stroke-width=".522"/><line x1=".79" x2=".79" y1="1.909" y2="50.845" stroke="url(#paint2_linear_17771_23047)" stroke-linecap="round" stroke-width=".522"/><path stroke="#009688" stroke-linecap="round" stroke-width="1.044" d="M2.3958 23.5781L3.893 25.0753C4.09686 25.2792 4.42738 25.2792 4.63124 25.0753L6.12844 23.5781"/><path stroke="#009688" stroke-linecap="round" stroke-width="1.044" d="M2.3958 35.2441L3.893 36.7413C4.09686 36.9452 4.42738 36.9452 4.63124 36.7413L6.12844 35.2441"/><path stroke="#009688" stroke-linecap="round" stroke-width="1.044" d="M2.3958 44.1094L3.94891 45.2742C4.13451 45.4134 4.38972 45.4134 4.57533 45.2742L6.12844 44.1094"/><defs><linearGradient id="paint0_linear_17771_23047" x1="4.168" x2="4.168" y1=".25" y2="50.923" gradientUnits="userSpaceOnUse"><stop stop-color="#EBF9F0" stop-opacity="0"/><stop offset="1" stop-color="#009688"/></linearGradient><linearGradient id="paint1_linear_17771_23047" x1="7.527" x2="7.527" y1="49.204" y2="1.648" gradientUnits="userSpaceOnUse"><stop stop-color="#009688"/><stop offset="1" stop-color="#EBF9F0" stop-opacity="0"/></linearGradient><linearGradient id="paint2_linear_17771_23047" x1=".529" x2=".529" y1="49.204" y2="1.648" gradientUnits="userSpaceOnUse"><stop stop-color="#009688"/><stop offset="1" stop-color="#EBF9F0" stop-opacity="0"/></linearGradient></defs></svg>