<svg xmlns="http://www.w3.org/2000/svg" xmlns:svg="http://www.w3.org/2000/svg" width="256" height="256"><g class="layer"><title>Layer 1</title><path id="svg_1" fill="#2d2d31" d="m0,0l256,0l0,256l-256,0l0,-256z"/><path id="svg_2" fill="#2d2d31" fill-rule="evenodd" d="m14.22,0l-7.11,0l0,7.11l-7.11,0l0,7.11l7.11,0l0,7.11l-7.11,0l0,7.11l7.11,0l0,7.12l-7.11,0l0,7.11l7.11,0l0,-7.11l7.11,0l0,7.11l7.11,0l0,-7.11l7.11,0l0,7.11l7.12,0l0,-7.11l7.11,0l0,7.11l7.11,0l0,-7.11l7.11,0l0,7.11l7.11,0l0,-7.11l7.11,0l0,7.11l7.11,0l0,-7.11l7.11,0l0,-7.12l-7.11,0l0,-7.11l7.11,0l0,-7.11l-7.11,0l0,-7.11l7.11,0l0,-7.11l-7.11,0l0,7.11l-7.11,0l0,-7.11l-7.11,0l0,7.11l-7.11,0l0,-7.11l-7.11,0l0,7.11l-7.11,0l0,-7.11l-7.11,0l0,7.11l-7.12,0l0,-7.11l-7.11,0l0,7.11l-7.11,0l0,-7.11zm0,14.22l0,-7.11l-7.11,0l0,7.11l7.11,0zm7.11,0l-7.11,0l0,7.11l-7.11,0l0,7.11l7.11,0l0,7.12l7.11,0l0,-7.12l7.11,0l0,7.12l7.12,0l0,-7.12l7.11,0l0,7.12l7.11,0l0,-7.12l7.11,0l0,7.12l7.11,0l0,-7.12l7.11,0l0,7.12l7.11,0l0,-7.12l-7.11,0l0,-7.11l7.11,0l0,-7.11l-7.11,0l0,-7.11l-7.11,0l0,7.11l-7.11,0l0,-7.11l-7.11,0l0,7.11l-7.11,0l0,-7.11l-7.11,0l0,7.11l-7.12,0l0,-7.11l-7.11,0l0,7.11zm0,7.11l0,-7.11l7.11,0l0,7.11l-7.11,0zm14.23,0l0,7.11l-7.12,0l0,-7.11l7.12,0zm7.11,0l0,-7.11l-7.11,0l0,7.11l7.11,0zm7.11,0l0,-7.11l7.11,0l0,7.11l-7.11,0zm14.22,0l7.11,0l0,-7.11l-7.11,0l0,7.11zm0,0l-7.11,0l0,7.11l7.11,0l0,-7.11zm-14.22,0l-7.11,0l0,7.11l7.11,0l0,-7.11zm-28.45,0l0,7.11l-7.11,0l0,-7.11l7.11,0z" clip-rule="evenodd"/><path id="svg_3" fill="#2d2d31" fill-rule="evenodd" d="m85.33,42.67l-78.22,0l0,7.11l-7.11,0l0,7.11l7.11,0l0,7.11l-7.11,0l0,7.11l7.11,0l0,7.11l-7.11,0l0,7.11l7.11,0l0,-7.11l7.11,0l0,7.11l7.11,0l0,-7.11l7.11,0l0,7.11l7.12,0l0,-7.11l7.11,0l0,7.11l7.11,0l0,-7.11l7.11,0l0,7.11l7.11,0l0,-7.11l7.11,0l0,7.11l7.11,0l0,-7.11l7.11,0l0,-7.11l-7.11,0l0,-7.11l7.11,0l0,-7.11l-7.11,0l0,-7.11l7.11,0l0,-7.11zm-14.22,7.11l7.11,0l0,-7.11l-7.11,0l0,7.11zm0,7.11l0,-7.11l-7.11,0l0,-7.11l-7.11,0l0,7.11l-7.11,0l0,-7.11l-7.11,0l0,7.11l-7.11,0l0,-7.11l-7.12,0l0,7.11l-7.11,0l0,-7.11l-7.11,0l0,7.11l-7.11,0l0,7.11l7.11,0l0,7.11l-7.11,0l0,7.11l7.11,0l0,7.11l7.11,0l0,-7.11l7.11,0l0,7.11l7.12,0l0,-7.11l7.11,0l0,7.11l7.11,0l0,-7.11l7.11,0l0,7.11l7.11,0l0,-7.11l7.11,0l0,7.11l7.11,0l0,-7.11l-7.11,0l0,-7.11l7.11,0l0,-7.11l-7.11,0zm-7.11,0l0,-7.11l-7.11,0l0,7.11l-7.11,0l0,-7.11l-7.11,0l0,7.11l-7.11,0l0,-7.11l-7.12,0l0,7.11l-7.11,0l0,-7.11l-7.11,0l0,7.11l7.11,0l0,7.11l-7.11,0l0,7.11l7.11,0l0,-7.11l7.11,0l0,7.11l7.12,0l0,-7.11l7.11,0l0,7.11l7.11,0l0,-7.11l7.11,0l0,7.11l7.11,0l0,-7.11l7.11,0l0,-7.11l-7.11,0zm0,0l-7.11,0l0,7.11l7.11,0l0,-7.11zm-14.22,7.11l-7.11,0l0,-7.11l7.11,0l0,7.11zm-14.22,0l-7.12,0l0,-7.11l7.12,0l0,7.11z" clip-rule="evenodd"/><path id="svg_4" fill="#2d2d31" fill-rule="evenodd" d="m14.22,85.33l-14.22,0l0,0l7.11,0l0,7.11l7.11,0l0,7.12l-7.11,0l0,-7.12l-7.11,0l0,7.12l7.11,0l0,7.11l-7.11,0l0,7.11l7.11,0l0,7.11l-7.11,0l0,7.11l7.11,0l0,-7.11l7.11,0l0,7.11l7.11,0l0,-7.11l7.11,0l0,7.11l7.12,0l0,-7.11l7.11,0l0,7.11l7.11,0l0,-7.11l7.11,0l0,7.11l7.11,0l0,-7.11l7.11,0l0,7.11l7.11,0l0,-7.11l7.11,0l0,-7.11l-7.11,0l0,-7.11l7.11,0l0,-7.11l-7.11,0l0,-7.12l7.11,0l0,-7.11l-7.11,0l0,7.11l-7.11,0l0,-7.11l-7.11,0l0,7.11l-7.11,0l0,-7.11l-7.11,0l0,7.11l-7.11,0l0,-7.11l-7.11,0l0,7.11l-7.12,0l0,-7.11l-7.11,0l0,7.11l-7.11,0l0,-7.11zm7.11,14.23l0,-7.12l7.11,0l0,7.12l-7.11,0zm0,7.11l0,-7.11l-7.11,0l0,7.11l-7.11,0l0,7.11l7.11,0l0,7.11l7.11,0l0,-7.11l7.11,0l0,7.11l7.12,0l0,-7.11l7.11,0l0,7.11l7.11,0l0,-7.11l7.11,0l0,7.11l7.11,0l0,-7.11l7.11,0l0,7.11l7.11,0l0,-7.11l-7.11,0l0,-7.11l7.11,0l0,-7.11l-7.11,0l0,-7.12l-7.11,0l0,7.12l-7.11,0l0,-7.12l-7.11,0l0,7.12l-7.11,0l0,-7.12l-7.11,0l0,7.12l-7.12,0l0,7.11l-7.11,0zm14.23,0l0,7.11l-7.12,0l0,-7.11l7.12,0zm7.11,0l0,-7.11l-7.11,0l0,7.11l7.11,0zm7.11,0l0,7.11l-7.11,0l0,-7.11l7.11,0zm7.11,0l0,-7.11l-7.11,0l0,7.11l7.11,0zm7.11,0l7.11,0l0,-7.11l-7.11,0l0,7.11zm0,0l-7.11,0l0,7.11l7.11,0l0,-7.11zm-42.67,0l0,7.11l-7.11,0l0,-7.11l7.11,0z" clip-rule="evenodd" transform="matrix(1 0 0 1 0 0)"/><path id="svg_5" fill="#2d2d31" fill-rule="evenodd" d="m14.22,128l-7.11,0l0,7.11l-7.11,0l0,7.11l7.11,0l0,7.11l-7.11,0l0,7.11l7.11,0l0,7.12l-7.11,0l0,7.11l7.11,0l0,-7.11l7.11,0l0,7.11l7.11,0l0,-7.11l7.11,0l0,7.11l7.12,0l0,-7.11l7.11,0l0,7.11l7.11,0l0,-7.11l7.11,0l0,7.11l7.11,0l0,-7.11l7.11,0l0,7.11l7.11,0l0,-7.11l7.11,0l0,-7.12l-7.11,0l0,-7.11l7.11,0l0,-7.11l-7.11,0l0,-7.11l7.11,0l0,-7.11l-7.11,0l0,7.11l-7.11,0l0,-7.11l-7.11,0l0,7.11l-7.11,0l0,-7.11l-7.11,0l0,7.11l-7.11,0l0,-7.11l-7.11,0l0,7.11l-7.12,0l0,-7.11l-7.11,0l0,7.11l-7.11,0l0,-7.11zm0,14.22l0,-7.11l-7.11,0l0,7.11l7.11,0zm7.11,0l-7.11,0l0,7.11l-7.11,0l0,7.11l7.11,0l0,7.12l7.11,0l0,-7.12l7.11,0l0,7.12l7.12,0l0,-7.12l7.11,0l0,7.12l7.11,0l0,-7.12l7.11,0l0,7.12l7.11,0l0,-7.12l7.11,0l0,7.12l7.11,0l0,-7.12l-7.11,0l0,-7.11l7.11,0l0,-7.11l-7.11,0l0,-7.11l-7.11,0l0,7.11l-7.11,0l0,-7.11l-7.11,0l0,7.11l-7.11,0l0,-7.11l-7.11,0l0,7.11l-7.12,0l0,-7.11l-7.11,0l0,7.11zm0,7.11l0,-7.11l7.11,0l0,7.11l-7.11,0zm14.23,0l0,7.11l-7.12,0l0,-7.11l7.12,0zm7.11,0l0,-7.11l-7.11,0l0,7.11l7.11,0zm7.11,0l0,-7.11l7.11,0l0,7.11l-7.11,0zm14.22,0l7.11,0l0,-7.11l-7.11,0l0,7.11zm0,0l-7.11,0l0,7.11l7.11,0l0,-7.11zm-14.22,0l-7.11,0l0,7.11l7.11,0l0,-7.11zm-28.45,0l0,7.11l-7.11,0l0,-7.11l7.11,0z" clip-rule="evenodd"/><path id="svg_6" fill="#2d2d31" fill-rule="evenodd" d="m85.33,170.67l-78.22,0l0,7.11l-7.11,0l0,7.11l7.11,0l0,7.11l-7.11,0l0,7.11l7.11,0l0,7.11l-7.11,0l0,7.11l7.11,0l0,-7.11l7.11,0l0,7.11l7.11,0l0,-7.11l7.11,0l0,7.11l7.12,0l0,-7.11l7.11,0l0,7.11l7.11,0l0,-7.11l7.11,0l0,7.11l7.11,0l0,-7.11l7.11,0l0,7.11l7.11,0l0,-7.11l7.11,0l0,-7.11l-7.11,0l0,-7.11l7.11,0l0,-7.11l-7.11,0l0,-7.11l7.11,0l0,-7.11zm-14.22,7.11l7.11,0l0,-7.11l-7.11,0l0,7.11zm0,7.11l0,-7.11l-7.11,0l0,-7.11l-7.11,0l0,7.11l-7.11,0l0,-7.11l-7.11,0l0,7.11l-7.11,0l0,-7.11l-7.12,0l0,7.11l-7.11,0l0,-7.11l-7.11,0l0,7.11l-7.11,0l0,7.11l7.11,0l0,7.11l-7.11,0l0,7.11l7.11,0l0,7.11l7.11,0l0,-7.11l7.11,0l0,7.11l7.12,0l0,-7.11l7.11,0l0,7.11l7.11,0l0,-7.11l7.11,0l0,7.11l7.11,0l0,-7.11l7.11,0l0,7.11l7.11,0l0,-7.11l-7.11,0l0,-7.11l7.11,0l0,-7.11l-7.11,0zm-7.11,0l0,-7.11l-7.11,0l0,7.11l-7.11,0l0,-7.11l-7.11,0l0,7.11l-7.11,0l0,-7.11l-7.12,0l0,7.11l-7.11,0l0,-7.11l-7.11,0l0,7.11l7.11,0l0,7.11l-7.11,0l0,7.11l7.11,0l0,-7.11l7.11,0l0,7.11l7.12,0l0,-7.11l7.11,0l0,7.11l7.11,0l0,-7.11l7.11,0l0,7.11l7.11,0l0,-7.11l7.11,0l0,-7.11l-7.11,0zm0,0l-7.11,0l0,7.11l7.11,0l0,-7.11zm-14.22,7.11l-7.11,0l0,-7.11l7.11,0l0,7.11zm-14.22,0l-7.12,0l0,-7.11l7.12,0l0,7.11z" clip-rule="evenodd"/><path id="svg_7" fill="#2d2d31" fill-rule="evenodd" d="m14.22,213.33l-14.22,0l0,0l7.11,0l0,7.11l7.11,0l0,7.12l-7.11,0l0,-7.12l-7.11,0l0,7.12l7.11,0l0,7.11l-7.11,0l0,7.11l7.11,0l0,7.11l-7.11,0l0,7.11l7.11,0l0,-7.11l7.11,0l0,7.11l7.11,0l0,-7.11l7.11,0l0,7.11l7.12,0l0,-7.11l7.11,0l0,7.11l7.11,0l0,-7.11l7.11,0l0,7.11l7.11,0l0,-7.11l7.11,0l0,7.11l7.11,0l0,-7.11l7.11,0l0,-7.11l-7.11,0l0,-7.11l7.11,0l0,-7.11l-7.11,0l0,-7.12l7.11,0l0,-7.11l-7.11,0l0,7.11l-7.11,0l0,-7.11l-7.11,0l0,7.11l-7.11,0l0,-7.11l-7.11,0l0,7.11l-7.11,0l0,-7.11l-7.11,0l0,7.11l-7.12,0l0,-7.11l-7.11,0l0,7.11l-7.11,0l0,-7.11zm7.11,14.23l0,-7.12l7.11,0l0,7.12l-7.11,0zm0,7.11l0,-7.11l-7.11,0l0,7.11l-7.11,0l0,7.11l7.11,0l0,7.11l7.11,0l0,-7.11l7.11,0l0,7.11l7.12,0l0,-7.11l7.11,0l0,7.11l7.11,0l0,-7.11l7.11,0l0,7.11l7.11,0l0,-7.11l7.11,0l0,7.11l7.11,0l0,-7.11l-7.11,0l0,-7.11l7.11,0l0,-7.11l-7.11,0l0,-7.12l-7.11,0l0,7.12l-7.11,0l0,-7.12l-7.11,0l0,7.12l-7.11,0l0,-7.12l-7.11,0l0,7.12l-7.12,0l0,7.11l-7.11,0zm14.23,0l0,7.11l-7.12,0l0,-7.11l7.12,0zm7.11,0l0,-7.11l-7.11,0l0,7.11l7.11,0zm7.11,0l0,7.11l-7.11,0l0,-7.11l7.11,0zm7.11,0l0,-7.11l-7.11,0l0,7.11l7.11,0zm7.11,0l7.11,0l0,-7.11l-7.11,0l0,7.11zm0,0l-7.11,0l0,7.11l7.11,0l0,-7.11zm-42.67,0l0,7.11l-7.11,0l0,-7.11l7.11,0z" clip-rule="evenodd"/><path id="svg_8" fill="#2d2d31" fill-rule="evenodd" d="m85.34,0l0,0l0,42.67l7.11,0l0,-7.11l7.11,0l0,7.11l7.11,0l0,-7.11l7.11,0l0,7.11l7.11,0l0,-7.11l7.11,0l0,7.11l7.12,0l0,-7.11l7.11,0l0,7.11l7.11,0l0,-7.11l7.11,0l0,7.11l7.11,0l0,-7.11l7.11,0l0,-7.12l-7.11,0l0,-7.11l7.11,0l0,-7.11l-7.11,0l0,-7.11l7.11,0l0,-7.11l-7.11,0l0,7.11l-7.11,0l0,-7.11l-7.11,0l0,7.11l-7.11,0l0,-7.11l-7.11,0l0,7.11l-7.12,0l0,-7.11l-7.11,0l0,7.11l-7.11,0l0,-7.11l-7.11,0l0,7.11l-7.11,0l0,-7.11l-7.11,0l0,7.11l-7.11,0l0,-7.11zm7.11,14.22l0,-7.11l7.11,0l0,7.11l-7.11,0zm0,7.11l-7.11,0l0,-7.11l7.11,0l0,7.11zm7.11,0l0,-7.11l7.11,0l0,7.11l-7.11,0zm0,7.11l0,-7.11l-7.11,0l0,7.11l-7.11,0l0,7.12l7.11,0l0,-7.12l7.11,0zm7.11,0l0,7.12l-7.11,0l0,-7.12l7.11,0zm7.11,0l-7.11,0l0,-7.11l7.11,0l0,7.11zm7.11,0l0,7.12l-7.11,0l0,-7.12l7.11,0zm0,-7.11l0,7.11l7.11,0l0,7.12l7.12,0l0,-7.12l7.11,0l0,7.12l7.11,0l0,-7.12l7.11,0l0,7.12l7.11,0l0,-7.12l-7.11,0l0,-7.11l7.11,0l0,-7.11l-7.11,0l0,-7.11l-7.11,0l0,7.11l-7.11,0l0,-7.11l-7.11,0l0,7.11l-7.12,0l0,-7.11l-7.11,0l0,7.11l-7.11,0l0,-7.11l-7.11,0l0,7.11l7.11,0l0,7.11l7.11,0zm7.11,0l0,-7.11l-7.11,0l0,7.11l7.11,0zm7.12,0l0,-7.11l7.11,0l0,7.11l-7.11,0zm14.22,0l7.11,0l0,-7.11l-7.11,0l0,7.11zm0,0l-7.11,0l0,7.11l7.11,0l0,-7.11zm-14.22,0l-7.12,0l0,7.11l7.12,0l0,-7.11z" clip-rule="evenodd"/><path id="svg_9" fill="#2d2d31" fill-rule="evenodd" d="m170.67,42.67l-85.33,0l0,42.66l7.11,0l0,-7.11l7.11,0l0,7.11l7.11,0l0,-7.11l7.11,0l0,7.11l7.11,0l0,-7.11l7.11,0l0,7.11l7.12,0l0,-7.11l7.11,0l0,7.11l7.11,0l0,-7.11l7.11,0l0,7.11l7.11,0l0,-7.11l7.11,0l0,-7.11l-7.11,0l0,-7.11l7.11,0l0,-7.11l-7.11,0l0,-7.11l7.11,0l0,-7.11zm-14.22,7.11l7.11,0l0,-7.11l-7.11,0l0,7.11zm0,7.11l0,-7.11l-7.11,0l0,-7.11l-7.11,0l0,7.11l-7.11,0l0,-7.11l-7.12,0l0,7.11l-7.11,0l0,-7.11l-7.11,0l0,7.11l-7.11,0l0,-7.11l-7.11,0l0,7.11l-7.11,0l0,-7.11l-7.11,0l0,7.11l7.11,0l0,7.11l-7.11,0l0,7.11l7.11,0l0,7.11l-7.11,0l0,7.11l7.11,0l0,-7.11l7.11,0l0,7.11l7.11,0l0,-7.11l7.11,0l0,7.11l7.11,0l0,-7.11l7.11,0l0,7.11l7.12,0l0,-7.11l7.11,0l0,7.11l7.11,0l0,-7.11l7.11,0l0,7.11l7.11,0l0,-7.11l-7.11,0l0,-7.11l7.11,0l0,-7.11l-7.11,0zm-7.11,0l0,-7.11l-7.11,0l0,7.11l-7.11,0l0,-7.11l-7.12,0l0,7.11l-7.11,0l0,-7.11l-7.11,0l0,7.11l-7.11,0l0,-7.11l-7.11,0l0,7.11l-7.11,0l0,7.11l7.11,0l0,7.11l7.11,0l0,-7.11l7.11,0l0,7.11l7.11,0l0,-7.11l7.11,0l0,7.11l7.12,0l0,-7.11l7.11,0l0,7.11l7.11,0l0,-7.11l7.11,0l0,-7.11l-7.11,0zm0,0l0,7.11l-7.11,0l0,-7.11l7.11,0zm-14.22,7.11l0,-7.11l-7.12,0l0,7.11l7.12,0zm-14.23,0l-7.11,0l0,-7.11l7.11,0l0,7.11zm-14.22,0l0,-7.11l-7.11,0l0,7.11l7.11,0z" clip-rule="evenodd"/><path id="svg_10" fill="#2d2d31" fill-rule="evenodd" d="m85.34,85.33l0,0l0,42.67l85.33,0l0,0l-7.11,0l0,-7.11l7.11,0l0,-7.11l-7.11,0l0,-7.11l7.11,0l0,-7.11l-7.11,0l0,-7.12l7.11,0l0,-7.11l-7.11,0l0,7.11l-7.11,0l0,-7.11l-7.11,0l0,7.11l-7.11,0l0,-7.11l-7.11,0l0,7.11l-7.12,0l0,-7.11l-7.11,0l0,7.11l-7.11,0l0,-7.11l-7.11,0l0,7.11l-7.11,0l0,-7.11l-7.11,0l0,7.11l-7.11,0l0,-7.11zm7.11,14.23l0,-7.12l7.11,0l0,7.12l-7.11,0zm0,7.11l-7.11,0l0,-7.11l7.11,0l0,7.11zm7.11,0l0,-7.11l7.11,0l0,7.11l-7.11,0zm0,7.11l0,-7.11l-7.11,0l0,7.11l-7.11,0l0,7.11l7.11,0l0,7.11l7.11,0l0,-7.11l7.11,0l0,7.11l7.11,0l0,-7.11l7.11,0l0,7.11l7.11,0l0,-7.11l7.12,0l0,7.11l7.11,0l0,-7.11l7.11,0l0,7.11l7.11,0l0,-7.11l7.11,0l0,-7.11l-7.11,0l0,-7.11l7.11,0l0,-7.11l-7.11,0l0,-7.12l-7.11,0l0,7.12l-7.11,0l0,-7.12l-7.11,0l0,7.12l-7.12,0l0,-7.12l-7.11,0l0,7.12l-7.11,0l0,-7.12l-7.11,0l0,7.12l7.11,0l0,7.11l-7.11,0l0,7.11l-7.11,0zm14.22,0l0,-7.11l7.11,0l0,7.11l-7.11,0zm14.22,0l-7.11,0l0,7.11l7.11,0l0,-7.11zm0,-7.11l-7.11,0l0,-7.11l7.11,0l0,7.11zm7.12,0l0,-7.11l7.11,0l0,7.11l-7.11,0zm0,7.11l-7.12,0l0,-7.11l7.12,0l0,7.11zm7.11,0l0,7.11l-7.11,0l0,-7.11l7.11,0zm7.11,0l0,7.11l7.11,0l0,-7.11l-7.11,0zm0,-7.11l0,-7.11l7.11,0l0,7.11l-7.11,0zm0,0l0,7.11l-7.11,0l0,-7.11l7.11,0zm-35.56,7.11l0,7.11l-7.11,0l0,-7.11l7.11,0zm-14.22,0l0,7.11l-7.11,0l0,-7.11l7.11,0z" clip-rule="evenodd"/><path id="svg_11" fill="#2d2d31" fill-rule="evenodd" d="m85.34,128l0,0l0,42.67l7.11,0l0,-7.11l7.11,0l0,7.11l7.11,0l0,-7.11l7.11,0l0,7.11l7.11,0l0,-7.11l7.11,0l0,7.11l7.12,0l0,-7.11l7.11,0l0,7.11l7.11,0l0,-7.11l7.11,0l0,7.11l7.11,0l0,-7.11l7.11,0l0,-7.12l-7.11,0l0,-7.11l7.11,0l0,-7.11l-7.11,0l0,-7.11l7.11,0l0,-7.11l-7.11,0l0,7.11l-7.11,0l0,-7.11l-7.11,0l0,7.11l-7.11,0l0,-7.11l-7.11,0l0,7.11l-7.12,0l0,-7.11l-7.11,0l0,7.11l-7.11,0l0,-7.11l-7.11,0l0,7.11l-7.11,0l0,-7.11l-7.11,0l0,7.11l-7.11,0l0,-7.11zm7.11,14.22l0,-7.11l7.11,0l0,7.11l-7.11,0zm0,7.11l-7.11,0l0,-7.11l7.11,0l0,7.11zm7.11,0l0,-7.11l7.11,0l0,7.11l-7.11,0zm0,7.11l0,-7.11l-7.11,0l0,7.11l-7.11,0l0,7.12l7.11,0l0,-7.12l7.11,0zm7.11,0l0,7.12l-7.11,0l0,-7.12l7.11,0zm7.11,0l-7.11,0l0,-7.11l7.11,0l0,7.11zm7.11,0l0,7.12l-7.11,0l0,-7.12l7.11,0zm0,-7.11l0,7.11l7.11,0l0,7.12l7.12,0l0,-7.12l7.11,0l0,7.12l7.11,0l0,-7.12l7.11,0l0,7.12l7.11,0l0,-7.12l-7.11,0l0,-7.11l7.11,0l0,-7.11l-7.11,0l0,-7.11l-7.11,0l0,7.11l-7.11,0l0,-7.11l-7.11,0l0,7.11l-7.12,0l0,-7.11l-7.11,0l0,7.11l-7.11,0l0,-7.11l-7.11,0l0,7.11l7.11,0l0,7.11l7.11,0zm7.11,0l0,-7.11l-7.11,0l0,7.11l7.11,0zm7.12,0l0,-7.11l7.11,0l0,7.11l-7.11,0zm14.22,0l7.11,0l0,-7.11l-7.11,0l0,7.11zm0,0l-7.11,0l0,7.11l7.11,0l0,-7.11zm-14.22,0l-7.12,0l0,7.11l7.12,0l0,-7.11z" clip-rule="evenodd"/><path id="svg_12" fill="#2d2d31" fill-rule="evenodd" d="m170.67,170.67l-85.33,0l0,42.66l7.11,0l0,-7.11l7.11,0l0,7.11l7.11,0l0,-7.11l7.11,0l0,7.11l7.11,0l0,-7.11l7.11,0l0,7.11l7.12,0l0,-7.11l7.11,0l0,7.11l7.11,0l0,-7.11l7.11,0l0,7.11l7.11,0l0,-7.11l7.11,0l0,-7.11l-7.11,0l0,-7.11l7.11,0l0,-7.11l-7.11,0l0,-7.11l7.11,0l0,-7.11zm-14.22,7.11l7.11,0l0,-7.11l-7.11,0l0,7.11zm0,7.11l0,-7.11l-7.11,0l0,-7.11l-7.11,0l0,7.11l-7.11,0l0,-7.11l-7.12,0l0,7.11l-7.11,0l0,-7.11l-7.11,0l0,7.11l-7.11,0l0,-7.11l-7.11,0l0,7.11l-7.11,0l0,-7.11l-7.11,0l0,7.11l7.11,0l0,7.11l-7.11,0l0,7.11l7.11,0l0,7.11l-7.11,0l0,7.11l7.11,0l0,-7.11l7.11,0l0,7.11l7.11,0l0,-7.11l7.11,0l0,7.11l7.11,0l0,-7.11l7.11,0l0,7.11l7.12,0l0,-7.11l7.11,0l0,7.11l7.11,0l0,-7.11l7.11,0l0,7.11l7.11,0l0,-7.11l-7.11,0l0,-7.11l7.11,0l0,-7.11l-7.11,0zm-7.11,0l0,-7.11l-7.11,0l0,7.11l-7.11,0l0,-7.11l-7.12,0l0,7.11l-7.11,0l0,-7.11l-7.11,0l0,7.11l-7.11,0l0,-7.11l-7.11,0l0,7.11l-7.11,0l0,7.11l7.11,0l0,7.11l7.11,0l0,-7.11l7.11,0l0,7.11l7.11,0l0,-7.11l7.11,0l0,7.11l7.12,0l0,-7.11l7.11,0l0,7.11l7.11,0l0,-7.11l7.11,0l0,-7.11l-7.11,0zm0,0l0,7.11l-7.11,0l0,-7.11l7.11,0zm-14.22,7.11l0,-7.11l-7.12,0l0,7.11l7.12,0zm-14.23,0l-7.11,0l0,-7.11l7.11,0l0,7.11zm-14.22,0l0,-7.11l-7.11,0l0,7.11l7.11,0z" clip-rule="evenodd"/><path id="svg_13" fill="#2d2d31" fill-rule="evenodd" d="m85.34,213.33l0,0l0,42.67l85.33,0l0,0l-7.11,0l0,-7.11l7.11,0l0,-7.11l-7.11,0l0,-7.11l7.11,0l0,-7.11l-7.11,0l0,-7.12l7.11,0l0,-7.11l-7.11,0l0,7.11l-7.11,0l0,-7.11l-7.11,0l0,7.11l-7.11,0l0,-7.11l-7.11,0l0,7.11l-7.12,0l0,-7.11l-7.11,0l0,7.11l-7.11,0l0,-7.11l-7.11,0l0,7.11l-7.11,0l0,-7.11l-7.11,0l0,7.11l-7.11,0l0,-7.11zm7.11,14.23l0,-7.12l7.11,0l0,7.12l-7.11,0zm0,7.11l-7.11,0l0,-7.11l7.11,0l0,7.11zm7.11,0l0,-7.11l7.11,0l0,7.11l-7.11,0zm0,7.11l0,-7.11l-7.11,0l0,7.11l-7.11,0l0,7.11l7.11,0l0,7.11l7.11,0l0,-7.11l7.11,0l0,7.11l7.11,0l0,-7.11l7.11,0l0,7.11l7.11,0l0,-7.11l7.12,0l0,7.11l7.11,0l0,-7.11l7.11,0l0,7.11l7.11,0l0,-7.11l7.11,0l0,-7.11l-7.11,0l0,-7.11l7.11,0l0,-7.11l-7.11,0l0,-7.12l-7.11,0l0,7.12l-7.11,0l0,-7.12l-7.11,0l0,7.12l-7.12,0l0,-7.12l-7.11,0l0,7.12l-7.11,0l0,-7.12l-7.11,0l0,7.12l7.11,0l0,7.11l-7.11,0l0,7.11l-7.11,0zm14.22,0l0,-7.11l7.11,0l0,7.11l-7.11,0zm14.22,0l-7.11,0l0,7.11l7.11,0l0,-7.11zm0,-7.11l-7.11,0l0,-7.11l7.11,0l0,7.11zm7.12,0l0,-7.11l7.11,0l0,7.11l-7.11,0zm0,7.11l-7.12,0l0,-7.11l7.12,0l0,7.11zm7.11,0l0,7.11l-7.11,0l0,-7.11l7.11,0zm7.11,0l0,7.11l7.11,0l0,-7.11l-7.11,0zm0,-7.11l0,-7.11l7.11,0l0,7.11l-7.11,0zm0,0l0,7.11l-7.11,0l0,-7.11l7.11,0zm-35.56,7.11l0,7.11l-7.11,0l0,-7.11l7.11,0zm-14.22,0l0,7.11l-7.11,0l0,-7.11l7.11,0z" clip-rule="evenodd"/><path id="svg_14" fill="#2d2d31" fill-rule="evenodd" d="m170.66,7.11l0,7.11l7.11,0l0,7.11l-7.11,0l0,7.11l7.11,0l0,7.12l-7.11,0l0,7.11l7.11,0l0,-7.11l7.11,0l0,7.11l7.12,0l0,-7.11l7.11,0l0,7.11l7.11,0l0,-7.11l7.11,0l0,7.11l7.11,0l0,-7.11l7.11,0l0,7.11l7.11,0l0,-7.11l7.11,0l0,7.11l7.11,0l0,-7.11l7.12,0l0,7.11l0,0l0,-42.67l-7.12,0l0,7.11l-7.11,0l0,-7.11l-7.11,0l0,7.11l-7.11,0l0,-7.11l-7.11,0l0,7.11l-7.11,0l0,-7.11l-7.11,0l0,7.11l-7.11,0l0,-7.11l-7.11,0l0,7.11l-7.12,0l0,-7.11l-7.11,0l0,7.11l-7.11,0zm14.22,7.11l0,-7.11l-7.11,0l0,7.11l7.11,0zm7.12,0l-7.12,0l0,7.11l-7.11,0l0,7.11l7.11,0l0,7.12l7.12,0l0,-7.12l7.11,0l0,7.12l7.11,0l0,-7.12l7.11,0l0,7.12l7.11,0l0,-7.12l7.11,0l0,7.12l7.11,0l0,-7.12l7.11,0l0,7.12l7.11,0l0,-7.12l7.12,0l0,-7.11l-7.12,0l0,-7.11l7.12,0l0,-7.11l-7.12,0l0,7.11l-7.11,0l0,-7.11l-7.11,0l0,7.11l-7.11,0l0,-7.11l-7.11,0l0,7.11l-7.11,0l0,-7.11l-7.11,0l0,7.11l-7.11,0l0,-7.11l-7.11,0l0,7.11zm0,7.11l0,-7.11l7.11,0l0,7.11l-7.11,0zm14.22,0l0,7.11l-7.11,0l0,-7.11l7.11,0zm7.11,0l0,-7.11l-7.11,0l0,7.11l7.11,0zm7.11,0l0,-7.11l7.11,0l0,7.11l-7.11,0zm14.22,0l-7.11,0l0,7.11l7.11,0l0,-7.11zm7.11,0l0,7.11l7.11,0l0,-7.11l-7.11,0zm0,0l-7.11,0l0,-7.11l7.11,0l0,7.11zm-21.33,0l-7.11,0l0,7.11l7.11,0l0,-7.11zm-28.44,0l0,7.11l-7.12,0l0,-7.11l7.12,0z" clip-rule="evenodd"/><path id="svg_15" fill="#2d2d31" fill-rule="evenodd" d="m256,42.67l-85.34,0l0,0l7.11,0l0,7.11l-7.11,0l0,7.11l7.11,0l0,7.11l-7.11,0l0,7.11l7.11,0l0,7.11l-7.11,0l0,7.11l7.11,0l0,-7.11l7.11,0l0,7.11l7.12,0l0,-7.11l7.11,0l0,7.11l7.11,0l0,-7.11l7.11,0l0,7.11l7.11,0l0,-7.11l7.11,0l0,7.11l7.11,0l0,-7.11l7.11,0l0,7.11l7.11,0l0,-7.11l7.12,0l0,7.11l0,0l0,-42.66zm-7.12,28.44l0,7.11l-7.11,0l0,-7.11l7.11,0zm0,-7.11l0,7.11l7.12,0l0,-7.11l-7.12,0zm-7.11,0l7.11,0l0,-7.11l7.12,0l0,-7.11l-7.12,0l0,-7.11l-7.11,0l0,7.11l-7.11,0l0,-7.11l-7.11,0l0,7.11l-7.11,0l0,-7.11l-7.11,0l0,7.11l-7.11,0l0,-7.11l-7.11,0l0,7.11l-7.11,0l0,-7.11l-7.12,0l0,7.11l-7.11,0l0,7.11l7.11,0l0,7.11l-7.11,0l0,7.11l7.11,0l0,7.11l7.12,0l0,-7.11l7.11,0l0,7.11l7.11,0l0,-7.11l7.11,0l0,7.11l7.11,0l0,-7.11l7.11,0l0,7.11l7.11,0l0,-7.11l7.11,0l0,-7.11zm-7.11,0l0,7.11l-7.11,0l0,-7.11l7.11,0zm0,-7.11l0,7.11l7.11,0l0,-7.11l7.11,0l0,-7.11l-7.11,0l0,7.11l-7.11,0zm-7.11,0l0,-7.11l7.11,0l0,7.11l-7.11,0zm-7.11,0l0,-7.11l-7.11,0l0,7.11l-7.11,0l0,-7.11l-7.11,0l0,7.11l-7.11,0l0,-7.11l-7.12,0l0,7.11l7.12,0l0,7.11l-7.12,0l0,7.11l7.12,0l0,-7.11l7.11,0l0,7.11l7.11,0l0,-7.11l7.11,0l0,7.11l7.11,0l0,-7.11l7.11,0l0,-7.11l-7.11,0zm0,0l0,7.11l-7.11,0l0,-7.11l7.11,0zm-14.22,7.11l-7.11,0l0,-7.11l7.11,0l0,7.11z" clip-rule="evenodd"/><path id="svg_16" fill="#2d2d31" fill-rule="evenodd" d="m170.66,92.44l0,7.12l7.11,0l0,7.11l-7.11,0l0,7.11l7.11,0l0,7.11l-7.11,0l0,7.11l85.34,0l0,-42.67l-7.12,0l0,7.11l-7.11,0l0,-7.11l-7.11,0l0,7.11l-7.11,0l0,-7.11l-7.11,0l0,7.11l-7.11,0l0,-7.11l-7.11,0l0,7.11l-7.11,0l0,-7.11l-7.11,0l0,7.11l-7.12,0l0,-7.11l-7.11,0l0,7.11l-7.11,0zm14.22,7.12l0,-7.12l-7.11,0l0,7.12l7.11,0zm7.12,0l-7.12,0l0,7.11l-7.11,0l0,7.11l7.11,0l0,7.11l-7.11,0l0,7.11l7.11,0l0,-7.11l7.12,0l0,7.11l7.11,0l0,-7.11l7.11,0l0,7.11l7.11,0l0,-7.11l7.11,0l0,7.11l7.11,0l0,-7.11l7.11,0l0,7.11l7.11,0l0,-7.11l7.11,0l0,7.11l7.12,0l0,-7.11l-7.12,0l0,-7.11l7.12,0l0,-7.11l-7.12,0l0,-7.11l7.12,0l0,-7.12l-7.12,0l0,7.12l-7.11,0l0,-7.12l-7.11,0l0,7.12l-7.11,0l0,-7.12l-7.11,0l0,7.12l-7.11,0l0,-7.12l-7.11,0l0,7.12l-7.11,0l0,-7.12l-7.11,0l0,7.12zm0,7.11l0,-7.11l7.11,0l0,7.11l-7.11,0zm0,7.11l-7.12,0l0,-7.11l7.12,0l0,7.11zm7.11,0l0,-7.11l7.11,0l0,7.11l-7.11,0zm14.22,0l-7.11,0l0,7.11l7.11,0l0,-7.11zm0,-7.11l-7.11,0l0,-7.11l7.11,0l0,7.11zm7.11,0l0,-7.11l7.11,0l0,7.11l-7.11,0zm0,7.11l-7.11,0l0,-7.11l7.11,0l0,7.11zm7.11,0l0,7.11l-7.11,0l0,-7.11l7.11,0zm7.11,0l0,7.11l7.11,0l0,-7.11l7.11,0l0,-7.11l-7.11,0l0,-7.11l-7.11,0l0,7.11l-7.11,0l0,7.11l7.11,0zm0,0l0,-7.11l7.11,0l0,7.11l-7.11,0zm-35.55,0l0,7.11l-7.11,0l0,-7.11l7.11,0z" clip-rule="evenodd"/><path id="svg_17" fill="#2d2d31" fill-rule="evenodd" d="m170.66,135.11l0,7.11l7.11,0l0,7.11l-7.11,0l0,7.11l7.11,0l0,7.12l-7.11,0l0,7.11l7.11,0l0,-7.11l7.11,0l0,7.11l7.12,0l0,-7.11l7.11,0l0,7.11l7.11,0l0,-7.11l7.11,0l0,7.11l7.11,0l0,-7.11l7.11,0l0,7.11l7.11,0l0,-7.11l7.11,0l0,7.11l7.11,0l0,-7.11l7.12,0l0,7.11l0,0l0,-42.67l-7.12,0l0,7.11l-7.11,0l0,-7.11l-7.11,0l0,7.11l-7.11,0l0,-7.11l-7.11,0l0,7.11l-7.11,0l0,-7.11l-7.11,0l0,7.11l-7.11,0l0,-7.11l-7.11,0l0,7.11l-7.12,0l0,-7.11l-7.11,0l0,7.11l-7.11,0zm14.22,7.11l0,-7.11l-7.11,0l0,7.11l7.11,0zm7.12,0l-7.12,0l0,7.11l-7.11,0l0,7.11l7.11,0l0,7.12l7.12,0l0,-7.12l7.11,0l0,7.12l7.11,0l0,-7.12l7.11,0l0,7.12l7.11,0l0,-7.12l7.11,0l0,7.12l7.11,0l0,-7.12l7.11,0l0,7.12l7.11,0l0,-7.12l7.12,0l0,-7.11l-7.12,0l0,-7.11l7.12,0l0,-7.11l-7.12,0l0,7.11l-7.11,0l0,-7.11l-7.11,0l0,7.11l-7.11,0l0,-7.11l-7.11,0l0,7.11l-7.11,0l0,-7.11l-7.11,0l0,7.11l-7.11,0l0,-7.11l-7.11,0l0,7.11zm0,7.11l0,-7.11l7.11,0l0,7.11l-7.11,0zm14.22,0l0,7.11l-7.11,0l0,-7.11l7.11,0zm7.11,0l0,-7.11l-7.11,0l0,7.11l7.11,0zm7.11,0l0,-7.11l7.11,0l0,7.11l-7.11,0zm14.22,0l-7.11,0l0,7.11l7.11,0l0,-7.11zm7.11,0l0,7.11l7.11,0l0,-7.11l-7.11,0zm0,0l-7.11,0l0,-7.11l7.11,0l0,7.11zm-21.33,0l-7.11,0l0,7.11l7.11,0l0,-7.11zm-28.44,0l0,7.11l-7.12,0l0,-7.11l7.12,0z" clip-rule="evenodd"/><path id="svg_18" fill="#2d2d31" fill-rule="evenodd" d="m256,170.67l-85.34,0l0,0l7.11,0l0,7.11l-7.11,0l0,7.11l7.11,0l0,7.11l-7.11,0l0,7.11l7.11,0l0,7.11l-7.11,0l0,7.11l7.11,0l0,-7.11l7.11,0l0,7.11l7.12,0l0,-7.11l7.11,0l0,7.11l7.11,0l0,-7.11l7.11,0l0,7.11l7.11,0l0,-7.11l7.11,0l0,7.11l7.11,0l0,-7.11l7.11,0l0,7.11l7.11,0l0,-7.11l7.12,0l0,7.11l0,0l0,-42.66zm-7.12,28.44l0,7.11l-7.11,0l0,-7.11l7.11,0zm0,-7.11l0,7.11l7.12,0l0,-7.11l-7.12,0zm-7.11,0l7.11,0l0,-7.11l7.12,0l0,-7.11l-7.12,0l0,-7.11l-7.11,0l0,7.11l-7.11,0l0,-7.11l-7.11,0l0,7.11l-7.11,0l0,-7.11l-7.11,0l0,7.11l-7.11,0l0,-7.11l-7.11,0l0,7.11l-7.11,0l0,-7.11l-7.12,0l0,7.11l-7.11,0l0,7.11l7.11,0l0,7.11l-7.11,0l0,7.11l7.11,0l0,7.11l7.12,0l0,-7.11l7.11,0l0,7.11l7.11,0l0,-7.11l7.11,0l0,7.11l7.11,0l0,-7.11l7.11,0l0,7.11l7.11,0l0,-7.11l7.11,0l0,-7.11zm-7.11,0l0,7.11l-7.11,0l0,-7.11l7.11,0zm0,-7.11l0,7.11l7.11,0l0,-7.11l7.11,0l0,-7.11l-7.11,0l0,7.11l-7.11,0zm-7.11,0l0,-7.11l7.11,0l0,7.11l-7.11,0zm-7.11,0l0,-7.11l-7.11,0l0,7.11l-7.11,0l0,-7.11l-7.11,0l0,7.11l-7.11,0l0,-7.11l-7.12,0l0,7.11l7.12,0l0,7.11l-7.12,0l0,7.11l7.12,0l0,-7.11l7.11,0l0,7.11l7.11,0l0,-7.11l7.11,0l0,7.11l7.11,0l0,-7.11l7.11,0l0,-7.11l-7.11,0zm0,0l0,7.11l-7.11,0l0,-7.11l7.11,0zm-14.22,7.11l-7.11,0l0,-7.11l7.11,0l0,7.11z" clip-rule="evenodd"/><path id="svg_19" fill="#2d2d31" fill-rule="evenodd" d="m170.66,220.44l0,7.12l7.11,0l0,7.11l-7.11,0l0,7.11l7.11,0l0,7.11l-7.11,0l0,7.11l85.34,0l0,-42.67l-7.12,0l0,7.11l-7.11,0l0,-7.11l-7.11,0l0,7.11l-7.11,0l0,-7.11l-7.11,0l0,7.11l-7.11,0l0,-7.11l-7.11,0l0,7.11l-7.11,0l0,-7.11l-7.11,0l0,7.11l-7.12,0l0,-7.11l-7.11,0l0,7.11l-7.11,0zm14.22,7.12l0,-7.12l-7.11,0l0,7.12l7.11,0zm7.12,0l-7.12,0l0,7.11l-7.11,0l0,7.11l7.11,0l0,7.11l-7.11,0l0,7.11l7.11,0l0,-7.11l7.12,0l0,7.11l7.11,0l0,-7.11l7.11,0l0,7.11l7.11,0l0,-7.11l7.11,0l0,7.11l7.11,0l0,-7.11l7.11,0l0,7.11l7.11,0l0,-7.11l7.11,0l0,7.11l7.12,0l0,-7.11l-7.12,0l0,-7.11l7.12,0l0,-7.11l-7.12,0l0,-7.11l7.12,0l0,-7.12l-7.12,0l0,7.12l-7.11,0l0,-7.12l-7.11,0l0,7.12l-7.11,0l0,-7.12l-7.11,0l0,7.12l-7.11,0l0,-7.12l-7.11,0l0,7.12l-7.11,0l0,-7.12l-7.11,0l0,7.12zm0,7.11l0,-7.11l7.11,0l0,7.11l-7.11,0zm0,7.11l-7.12,0l0,-7.11l7.12,0l0,7.11zm7.11,0l0,-7.11l7.11,0l0,7.11l-7.11,0zm14.22,0l-7.11,0l0,7.11l7.11,0l0,-7.11zm0,-7.11l-7.11,0l0,-7.11l7.11,0l0,7.11zm7.11,0l0,-7.11l7.11,0l0,7.11l-7.11,0zm0,7.11l-7.11,0l0,-7.11l7.11,0l0,7.11zm7.11,0l0,7.11l-7.11,0l0,-7.11l7.11,0zm7.11,0l0,7.11l7.11,0l0,-7.11l7.11,0l0,-7.11l-7.11,0l0,-7.11l-7.11,0l0,7.11l-7.11,0l0,7.11l7.11,0zm0,0l0,-7.11l7.11,0l0,7.11l-7.11,0zm-35.55,0l0,7.11l-7.11,0l0,-7.11l7.11,0z" clip-rule="evenodd"/></g></svg>