<svg xmlns="http://www.w3.org/2000/svg" width="48" height="48" fill="none" viewBox="0 0 48 48"><rect width="48" height="48" fill="#FEFFFE" transform="matrix(1 0 0 -1 0 48)"/><rect width="8" height="8" fill="#D9D9D9" transform="matrix(0 1 1 0 0 8)"/><rect width="8" height="8" fill="#D9D9D9" transform="matrix(0 1 1 0 0 24)"/><rect width="8" height="8" fill="#D9D9D9" transform="matrix(0 1 1 0 0 40)"/><rect width="8" height="8" fill="#D9D9D9" transform="matrix(0 1 1 0 8 0)"/><rect width="8" height="8" fill="#D9D9D9" transform="matrix(0 1 1 0 8 16)"/><rect width="8" height="8" fill="#D9D9D9" transform="matrix(0 1 1 0 8 32)"/><rect width="8" height="8" fill="#D9D9D9" transform="matrix(0 1 1 0 16 8)"/><rect width="8" height="8" fill="#D9D9D9" transform="matrix(0 1 1 0 16 24)"/><rect width="8" height="8" fill="#D9D9D9" transform="matrix(0 1 1 0 16 40)"/><rect width="8" height="8" fill="#D9D9D9" transform="matrix(0 1 1 0 24 0)"/><rect width="8" height="8" fill="#D9D9D9" transform="matrix(0 1 1 0 24 16)"/><rect width="8" height="8" fill="#D9D9D9" transform="matrix(0 1 1 0 24 32)"/><rect width="8" height="8" fill="#D9D9D9" transform="matrix(0 1 1 0 32 8)"/><rect width="8" height="8" fill="#D9D9D9" transform="matrix(0 1 1 0 32 24)"/><rect width="8" height="8" fill="#D9D9D9" transform="matrix(0 1 1 0 32 40)"/><rect width="8" height="8" fill="#D9D9D9" transform="matrix(0 1 1 0 40 0)"/><rect width="8" height="8" fill="#D9D9D9" transform="matrix(0 1 1 0 40 16)"/><rect width="8" height="8" fill="#D9D9D9" transform="matrix(0 1 1 0 40 32)"/></svg>